<?xml version="1.0" ?><!-- Uploaded to: SVG Repo, www.svgrepo.com, Generator: SVG Repo Mixer Tools -->
<svg fill="#000000" width="800px" height="800px" viewBox="0 0 64 64" data-name="Layer 1" id="Layer_1" xmlns="http://www.w3.org/2000/svg"><rect height="4" width="8" x="7" y="56"/><rect height="4" width="8" x="17" y="56"/><rect height="4" width="8" x="49" y="56"/><rect height="4" width="2" x="7" y="50"/><rect height="4" width="8" x="39" y="56"/><rect height="4" width="10" x="27" y="56"/><rect height="4" width="8" x="39" y="44"/><rect height="4" width="8" x="45" y="50"/><rect height="4" width="10" x="11" y="38"/><rect height="4" width="10" x="27" y="44"/><rect height="4" width="10" x="33" y="50"/><rect height="4" width="8" x="17" y="44"/><rect height="4" width="8" x="23" y="50"/><rect height="4" width="10" x="11" y="50"/><rect height="4" width="2" x="7" y="38"/><rect height="4" width="8" x="7" y="44"/><rect height="4" width="8" x="7" y="32"/><rect height="4" width="2" x="55" y="50"/><rect height="4" width="8" x="49" y="44"/><rect height="7" width="23" x="3" y="24"/><path d="M58.088,24a9.173,9.173,0,0,0,.427-6.2h0a9.175,9.175,0,0,1-.282-3.663L59,8,57.077,9.154A6.337,6.337,0,0,0,54,14.588a1.413,1.413,0,0,1-2.413,1,12.571,12.571,0,0,1-3.381-6.159L47,4,44.536,6.464A4.336,4.336,0,0,0,45,13s6.4,5.793,9,11.735V31h7V24Z"/><rect height="4" width="5" x="52" y="38"/><path d="M50.718,27.345c-1.144-5.339-7.1-10-11.7-12.927L35.287,12v8a1.951,1.951,0,0,1-2.961,1.555L27.217,19l1.367,2.734a6.511,6.511,0,0,1-.3,6.362,10.2,10.2,0,0,0-.071,9.717c1.5,2.594,4.552,3.3,7.367,3.42,4.216.178,10.068.146,12.882-3.607A12.687,12.687,0,0,0,49.477,36H57V32H50.825A12.689,12.689,0,0,0,50.718,27.345Zm-6.624,9.49a8.155,8.155,0,0,1-6.38,4.128L37.053,41l-.106-2,.624-.032a6.166,6.166,0,0,0,4.791-3.135,6.84,6.84,0,0,0,.3-6.286l-3.389-7.341-.841,4.208a6.067,6.067,0,0,1-3.841,4.517,4.142,4.142,0,0,0-2.686,4.041l-2,.054A6.1,6.1,0,0,1,33.89,29.06a4.081,4.081,0,0,0,2.582-3.037L37.915,18.8a1,1,0,0,1,1.889-.223L44.479,28.71A8.846,8.846,0,0,1,44.094,36.835Z"/><rect height="4" width="8" x="17" y="32"/><rect height="4" width="3" x="23" y="38"/></svg>